<?xml version="1.0" encoding="UTF-8" standalone="no"?>
<svg
   xmlns:dc="http://purl.org/dc/elements/1.1/"
   xmlns:cc="http://creativecommons.org/ns#"
   xmlns:rdf="http://www.w3.org/1999/02/22-rdf-syntax-ns#"
   xmlns:svg="http://www.w3.org/2000/svg"
   xmlns="http://www.w3.org/2000/svg"
   xmlns:sodipodi="http://sodipodi.sourceforge.net/DTD/sodipodi-0.dtd"
   xmlns:inkscape="http://www.inkscape.org/namespaces/inkscape"
   width="581.923"
   height="584.854"
   viewBox="0 0 581.923 584.854"
   version="1.1"
   id="svg12"
   sodipodi:docname="tracktime_t.svg"
   inkscape:version="1.0.2 (e86c870879, 2021-01-15)">
  <metadata
     id="metadata18">
    <rdf:RDF>
      <cc:Work
         rdf:about="">
        <dc:format>image/svg+xml</dc:format>
        <dc:type
           rdf:resource="http://purl.org/dc/dcmitype/StillImage" />
        <dc:title></dc:title>
      </cc:Work>
    </rdf:RDF>
  </metadata>
  <defs
     id="defs16" />
  <sodipodi:namedview
     pagecolor="#ffffff"
     bordercolor="#666666"
     borderopacity="1"
     objecttolerance="10"
     gridtolerance="10"
     guidetolerance="10"
     inkscape:pageopacity="0"
     inkscape:pageshadow="2"
     inkscape:window-width="1920"
     inkscape:window-height="1016"
     id="namedview14"
     showgrid="false"
     inkscape:zoom="1.0263363"
     inkscape:cx="224.92882"
     inkscape:cy="263.88836"
     inkscape:window-x="0"
     inkscape:window-y="27"
     inkscape:window-maximized="1"
     inkscape:current-layer="svg12" />
  <path
     style="fill:#4c004e;fill-opacity:1;stroke:none;stroke-width:1px;stroke-linecap:butt;stroke-linejoin:miter;stroke-opacity:1"
     d="m 69.489911,194.12746 -37.549,-33.805 20.456,-32.7 51.310999,16.102 43.129,-35.845 -17.73,-59.584004 36.423,-17.486 38.19,37.654 53.288,-11.318 15.67,-57.757 36.66,1.187 14.763,54.025 54.122,14.943 37.537,-41.702 37.005,21.083 -17.569,47.131 27.03,42.748004 c 0,0 23.91,56.03 9.23,120.668 -14.17,62.388 -49.979,105.676 -93.05,130.367 l -0.683,-1.008 c 0,0 72.775,-69.427 29.714,-167.088 -37.51,-85.074 -133.7,-91.053 -133.7,-91.053 l -12.331,-0.98 c 0,0 -47.168,-6.68 -106.784,20.231 -72.960999,32.935 -81.079999,61.603 -88.875999,73.82 -0.933,-0.695 12.157,-25.679 3.744,-29.633"
     id="path2" />
  <path
     style="fill:#009800;fill-opacity:1;stroke:none;stroke-width:1px;stroke-linecap:butt;stroke-linejoin:miter;stroke-opacity:1"
     d="m 485.62591,155.17446 48.05,-15.616 18.091,34.065 -39.6,36.386 9.478,55.272 60.467,14.437 -3.068,40.287 -51.704,14.247 -16.843,51.808 42.184,42.449 -19.357,31.155 -54.17,-14.228 -40.001,39.4 17.346,53.359 -36.761,21.506 -32.032,-38.781 -29.617,-1.08 c 0,0 -81.398,-4.193 -130.035,-49.226 -46.946,-43.465 -66.529,-96.12 -66.377,-145.767 l 1.215,-0.087 c 0,0 23.322,115.959 129.846,109.277 93.472,-5.864 143.612,-70.028 143.612,-70.028 l 23.343,-33.256 c 0,0 26.032,-46.972 28.706,-89.536 4.816,-76.653 -17.275,-91.294 -26.173,-102.414 l 1.148,-0.552 c 1.069,-0.461 14.621,22.23 22.252,16.922"
     id="path4" />
  <path
     style="fill:#0000c7;fill-opacity:1;stroke:none;stroke-width:1px;stroke-linecap:butt;stroke-linejoin:miter;stroke-opacity:1"
     d="m 317.43891,534.82246 -10.502,49.42 -38.547,-1.365 -11.71,-52.487 -52.607,-19.429 -42.737,45.148 -33.355,-22.801 13.514,-51.9 -36.445,-40.49 -57.853999,15.307 -17.303,-32.341 39.406,-39.798 -14.12,-54.342 -54.883,-11.657 -0.244,-42.59 49.601,-8.35 25.632,-39.62 c 0,0 34.441999,-53.885 97.759999,-73.49 61.115,-18.923 116.508,-9.555 159.426,15.4 l -0.532,1.096 c 0,0 -112.084,-37.783 -159.559,57.811 -41.658,83.882 -11.16,159.386 -11.16,159.386 l 17.13,36.843 c 0,0 19.256,40.176 56.121,61.62 60.885,35.413 95.21,35.322 110.318,35.255 l -0.097,1.27 c -0.134,1.156 -28.035,2.84 -27.253,12.104"
     id="path6" />
  <path
     style="fill:#dea928;fill-opacity:1;stroke:none;stroke-width:1px;stroke-linecap:butt;stroke-linejoin:miter;stroke-opacity:1"
     d="m 210.48141,228.12741 163.79613,0.40712 0.0659,20.3797 -68.40251,-0.34162 -0.81773,159.94935 -26.00618,-0.27965 -0.0911,-159.11539 -68.68767,-0.56805 z"
     id="path20"
     sodipodi:nodetypes="ccccccccc" />
</svg>
